# xmcd CD database file
#
# Track frame offsets:
#	150
#	13305
#	25628
#	37343
#	50401
#	63553
#	78091
#	91001
#	105888
#	117333
#	131568
#	144765
#
# Disc length: 2106 seconds
#
# Revision: 3
# Processed by: cddbd v1.5.2PL0 Copyright (c) Steve Scherf et al.
# Submitted via: CDex 1.51
#
DISCID=9108380c
DTITLE=Little Walter - Blues with a feeling
DYEAR=1996
DGENRE=Blues
TTITLE0=Juke
TTITLE1=Sad hours
TTITLE2=Mean old world
TTITLE3=Tell me mama
TTITLE4=Blues with a feeling
TTITLE5=You're so fine
TTITLE6=Oh baby
TTITLE7=You'd better watch yourself
TTITLE8=Last night
TTITLE9=My babe
TTITLE10=Roller coster
TTITLE11=Key to highway
EXTD=YEAR: 1996
EXTT0=
EXTT1=
EXTT2=
EXTT3=
EXTT4=
EXTT5=
EXTT6=
EXTT7=
EXTT8=
EXTT9=
EXTT10=
EXTT11=
PLAYORDER=
